<?xml version="1.0" standalone="no"?>
<!DOCTYPE svg PUBLIC "-//W3C//DTD SVG 20010904//EN"
 "http://www.w3.org/TR/2001/REC-SVG-20010904/DTD/svg10.dtd">
<svg version="1.0" xmlns="http://www.w3.org/2000/svg"
 width="1080.000000pt" height="1080.000000pt" viewBox="0 0 1080.000000 1080.000000"
 preserveAspectRatio="xMidYMid meet">
<metadata>
Created by potrace 1.14, written by Peter Selinger 2001-2017
</metadata>
<g transform="translate(0.000000,1080.000000) scale(0.100000,-0.100000)"
fill="#000000" stroke="none">
<path d="M7616 9603 c-1 -1 -40 -5 -87 -8 -46 -4 -92 -8 -101 -11 -10 -3 -35
-7 -55 -9 -21 -2 -49 -7 -63 -10 -14 -3 -38 -8 -55 -11 -156 -28 -404 -113
-540 -184 -70 -37 -168 -93 -180 -102 -5 -5 -46 -35 -91 -68 -151 -111 -301
-273 -398 -430 l-43 -69 -1 432 c0 238 -1 439 -1 447 -1 13 -100 15 -831 15
-731 0 -830 -2 -831 -15 -4 -90 0 -6402 4 -6406 7 -7 1645 -9 1652 -2 3 2 5
924 6 2049 0 1946 1 2050 19 2159 10 63 21 126 24 140 3 14 8 34 10 45 2 11
19 63 36 115 150 440 524 794 1050 993 91 34 243 83 285 91 11 2 47 11 80 19
33 8 76 18 95 21 19 3 46 8 60 11 14 3 53 8 88 12 l62 6 1 121 c0 67 1 241 3
388 l3 266 -99 -1 c-55 -1 -101 -3 -102 -4z"/>
<path d="M5087 2643 c-2 -1 -25 -5 -52 -9 -81 -10 -213 -60 -297 -111 -87 -53
-201 -160 -252 -237 -38 -58 -83 -138 -82 -146 0 -3 -7 -25 -16 -50 -69 -180
-58 -439 24 -618 77 -167 219 -316 378 -397 55 -28 190 -77 190 -70 0 3 12 0
26 -5 38 -15 210 -20 284 -8 73 11 228 60 268 85 106 65 145 94 202 152 247
250 311 622 162 941 -90 195 -269 355 -479 429 -43 15 -80 28 -83 28 -3 0 -30
4 -60 8 -50 8 -208 13 -213 8z"/>
</g>
</svg>
